<?xml version="1.0" encoding="utf-8"?>
<!-- Generator: Adobe Illustrator 24.3.0, SVG Export Plug-In . SVG Version: 6.00 Build 0)  -->
<svg version="1.1" id="Capa_1" xmlns="http://www.w3.org/2000/svg" xmlns:xlink="http://www.w3.org/1999/xlink" x="0px" y="0px"
	 viewBox="0 0 213.5 217.5" style="enable-background:new 0 0 213.5 217.5;" xml:space="preserve">
<style type="text/css">
	.st0{fill:#F69380;}
</style>
<g>
	<path class="st0" d="M181.7,34.8c-41-41-107.5-41-148.5,0c-41,41-41,107.5,0,148.5c41,41,107.5,41,148.5,0
		C222.8,142.2,222.8,75.8,181.7,34.8z M140.2,153.3l-32.7-32.7l-32.7,32.7c-3.2,3.2-8.4,3.2-11.6,0c-3.2-3.2-3.2-8.4,0-11.6
		L95.9,109L63.2,76.3c-3.2-3.2-3.2-8.4,0-11.6c3.2-3.2,8.4-3.2,11.6,0l32.7,32.7l32.7-32.7c3.2-3.2,8.4-3.2,11.6,0
		c3.2,3.2,3.2,8.4,0,11.6L119.1,109l32.7,32.7c3.2,3.2,3.2,8.4,0,11.6S143.4,156.5,140.2,153.3z"/>
</g>
</svg>
