<svg id="Capa_1" data-name="Capa 1" xmlns="http://www.w3.org/2000/svg" viewBox="0 0 37.52 36.67"><defs><style>.cls-1{fill:#63798a;stroke:#63798a;stroke-miterlimit:10;}</style></defs><title>filtro</title><path class="cls-1" d="M12.09,26.41a5,5,0,0,0-3.62-4.77V2a1.35,1.35,0,1,0-2.7,0V21.64a5,5,0,0,0,0,9.55v2.9a1.35,1.35,0,0,0,2.7,0v-2.9A5,5,0,0,0,12.09,26.41Zm-5,2.27a2.26,2.26,0,1,1,2.26-2.26,2.26,2.26,0,0,1-2.26,2.26Z"/><path class="cls-1" d="M35.47,26.41a5,5,0,0,0-3.62-4.77V2a1.36,1.36,0,0,0-2.71,0h0V21.64a5,5,0,0,0,0,9.55v2.9a1.36,1.36,0,0,0,2.71,0h0v-2.9A5,5,0,0,0,35.47,26.41Zm-5,2.27a2.26,2.26,0,1,1,2.26-2.26,2.26,2.26,0,0,1-2.26,2.26Z"/><path class="cls-1" d="M13.84,9.69a5,5,0,0,0,3.61,4.77V34.1a1.36,1.36,0,0,0,1.36,1.35,1.34,1.34,0,0,0,1.35-1.35V14.46a5,5,0,0,0,0-9.55V2a1.36,1.36,0,1,0-2.71,0h0v2.9A5,5,0,0,0,13.84,9.69Zm5-2.28a2.27,2.27,0,1,1-2.26,2.27,2.27,2.27,0,0,1,2.26-2.27Z"/></svg>