<svg id="Capa_1" data-name="Capa 1" xmlns="http://www.w3.org/2000/svg" viewBox="0 0 28.4 24.6"><defs><style>.cls-1{fill:#f69380;}.cls-2{fill:#eeece8;}</style></defs><title>like-lleno-neutro</title><path class="cls-1" d="M21.4,3.6a4.11,4.11,0,0,1,2.8,1.1,4.17,4.17,0,0,1,0,5.7l-9.9,9.9L4.4,10.4a4.17,4.17,0,0,1,0-5.7A3.93,3.93,0,0,1,7.2,3.6a4.18,4.18,0,0,1,2.9,1.2l2.1,2.1L14.3,9l2.1-2.1,2.1-2.1a4,4,0,0,1,2.9-1.2"/><path class="cls-2" d="M21.4.6a7.38,7.38,0,0,0-5,2L14.3,4.7,12.2,2.6a7.38,7.38,0,0,0-5-2,7,7,0,0,0-4.9,2,7.06,7.06,0,0,0,0,9.9L13.6,23.8a1,1,0,0,0,1.4,0L26.3,12.5a7.06,7.06,0,0,0,0-9.9,7,7,0,0,0-4.9-2Z"/></svg>