<?xml version="1.0" encoding="utf-8"?>
<!-- Generator: Adobe Illustrator 22.0.1, SVG Export Plug-In . SVG Version: 6.00 Build 0)  -->
<svg version="1.1" id="Capa_1" xmlns="http://www.w3.org/2000/svg" xmlns:xlink="http://www.w3.org/1999/xlink" x="0px" y="0px"
	 viewBox="0 0 213.5 217.5" style="enable-background:new 0 0 213.5 217.5;" xml:space="preserve">
<style type="text/css">
	.st0{fill:#F69380;}
</style>
<g id="Capa_2_1_">
</g>
<path class="st0" d="M108,2.5C49.8,2.5,2.5,49.8,2.5,108S49.8,213.5,108,213.5S213.5,166.2,213.5,108S166.2,2.5,108,2.5z
	 M154.9,90.9l-48.6,52.4c-2.4,2.7-6,4.2-9.8,4.2s-7.1-1.6-9.8-4.2l-25.5-27.8c-4.9-5.3-4.7-13.8,0.7-18.9c5.3-4.9,13.8-4.7,18.9,0.7
	l16,17.1l38.9-42c5.1-5.3,13.3-5.6,18.9-0.7C159.5,77.1,160,85.6,154.9,90.9z"/>
</svg>
