<svg id="Capa_1" data-name="Capa 1" xmlns="http://www.w3.org/2000/svg" viewBox="0 0 287.51 78.6"><defs><style>.cls-1{fill:#f69380;}</style></defs><title>logo-pibasarcilla</title><path class="cls-1" d="M37.58,43.81a2.56,2.56,0,0,1,.74,1.8,4.54,4.54,0,0,1-.08,1.07c-.49,2.46-.73,3.7-1.22,6.17a5.26,5.26,0,0,1-1.51,3.09,4.25,4.25,0,0,1-3.13.62,138.15,138.15,0,0,1-21.54-3.71,3.26,3.26,0,0,1-1.51-.76,1.72,1.72,0,0,1-.58-1.2,2.16,2.16,0,0,1,.1-.7,1.18,1.18,0,0,1,.43-.63,5.32,5.32,0,0,1,.66-.42,4.14,4.14,0,0,0,1.14-.85,3.7,3.7,0,0,0,.69-1.73c1.79-9.09,2.69-13.61,4.49-22.63a5.09,5.09,0,0,0,.11-1.34,3.14,3.14,0,0,0-.2-1.07c-.13-.3-.28-.67-.49-1.07a3.72,3.72,0,0,1-.47-1.27,2.84,2.84,0,0,1,.07-.59,1,1,0,0,1,.75-.82,4.49,4.49,0,0,1,1.9.15c4.32,1,6.48,1.44,10.78,2.17a3.17,3.17,0,0,1,1.51.6,1.43,1.43,0,0,1,.57,1.08,2.12,2.12,0,0,1-.1.69,1.57,1.57,0,0,1-.36.61,1.54,1.54,0,0,1-.44.37.84.84,0,0,0-.28.2,3.36,3.36,0,0,0-1.14.89,4.07,4.07,0,0,0-.69,1.72C25.87,35.74,24.93,40.5,23,50.07c1.13.19,1.7.28,2.84.45a3.14,3.14,0,0,0,1.79-.17,4,4,0,0,0,1.5-1.43l2.94-4.05a5.66,5.66,0,0,1,1.59-1.54,3.69,3.69,0,0,1,3.89.48Z"/><path class="cls-1" d="M70.7,50.67A5.14,5.14,0,0,0,70.58,52a3,3,0,0,0,.18.94,2.65,2.65,0,0,0,.32.59,1.69,1.69,0,0,1,.22.31,1.48,1.48,0,0,1,.5,1,3.24,3.24,0,0,1-.06.52A1.49,1.49,0,0,1,71,56.44a4.7,4.7,0,0,1-1.86.43c-4.3.34-6.45.46-10.75.59a2.5,2.5,0,0,1-1.49-.33,1.17,1.17,0,0,1-.57-1,2.12,2.12,0,0,1,.1-.68,1.53,1.53,0,0,1,.36-.67,6.72,6.72,0,0,1,.67-.56,4.73,4.73,0,0,0,1.14-1.08,5,5,0,0,0,.68-1.89l1-4.52c-2.83.07-4.25.09-7.09.07-.43,1.19-.65,1.79-1.09,3a8.62,8.62,0,0,0-.62,3,2.27,2.27,0,0,0,.23,1,4,4,0,0,0,.58.82,2.86,2.86,0,0,1,.46.71,1.36,1.36,0,0,1,.06.77,1.38,1.38,0,0,1-.7,1.08,4,4,0,0,1-1.78.28c-2.71,0-4.07,0-6.78-.17a2.63,2.63,0,0,1-1.62-.53,1.82,1.82,0,0,1-.14-2.57,7.46,7.46,0,0,1,1.52-1,9.89,9.89,0,0,0,2.11-1.47,5.48,5.48,0,0,0,1.31-2.1C49.57,42,51,38.11,53.88,30.44A14.66,14.66,0,0,1,58,24a10.33,10.33,0,0,1,6.57-2c3.08,0,5.51.59,7.27,1.93a7.2,7.2,0,0,1,2.81,5.75,12.57,12.57,0,0,1-.3,3.29C72.87,40,72.15,43.56,70.7,50.67Zm-9.34-9.15c.79-3.69,1.19-5.52,2-9.19a4.63,4.63,0,0,0,.12-1.3,2.06,2.06,0,0,0-.55-1.46,1.84,1.84,0,0,0-1.36-.48,2.53,2.53,0,0,0-1.83.74,7.12,7.12,0,0,0-1.42,2.6c-1.32,3.65-2,5.48-3.3,9.15C57.54,41.59,58.82,41.58,61.36,41.52Z"/><path class="cls-1" d="M98.36,20.51A17.35,17.35,0,0,1,102.81,22l1-1.07a10.61,10.61,0,0,1,1.72-1.52,4.08,4.08,0,0,1,1.59-.57,2.53,2.53,0,0,1,1.74.25,1.6,1.6,0,0,1,.7,1.37,2.83,2.83,0,0,1-.1.84c-.63,2.78-.95,4.17-1.58,7a4.37,4.37,0,0,1-.71,1.77,2.13,2.13,0,0,1-1.4.72,2.33,2.33,0,0,1-1.77-.38A19.61,19.61,0,0,1,101.55,28a10.72,10.72,0,0,0-3-2.36,4.7,4.7,0,0,0-2.68-.46,2.44,2.44,0,0,0-1.64.93A2.58,2.58,0,0,0,93.64,28,2.69,2.69,0,0,0,94.82,30a21.55,21.55,0,0,0,3.51,2.06c1.6.8,3,1.5,4,2.15a9.54,9.54,0,0,1,2.76,2.59,7,7,0,0,1,1.27,3.93,10.68,10.68,0,0,1-.31,3.09,12,12,0,0,1-3.91,6.68A14.41,14.41,0,0,1,95,53.83a14,14,0,0,1-5.28,0,12.82,12.82,0,0,1-4.46-2.08L83.7,53.51a10.41,10.41,0,0,1-1.79,1.67,3.67,3.67,0,0,1-1.61.58,2.24,2.24,0,0,1-1.67-.36,1.83,1.83,0,0,1-.69-1.46,3.79,3.79,0,0,1,.13-1.08c.75-3.12,1.12-4.68,1.87-7.78a4.07,4.07,0,0,1,.9-2,2.52,2.52,0,0,1,1.61-.73,2.49,2.49,0,0,1,1.91.59,15.35,15.35,0,0,1,2.33,2.63,10.1,10.1,0,0,0,2.84,2.83,4.52,4.52,0,0,0,3,.46,3.72,3.72,0,0,0,1.85-.71,2.85,2.85,0,0,0,.92-2.26,2.64,2.64,0,0,0-1.14-2A22.42,22.42,0,0,0,90.84,42,31,31,0,0,1,87,39.71a10.14,10.14,0,0,1-2.65-2.79A8.27,8.27,0,0,1,83,32.66a12.3,12.3,0,0,1,.33-3.51A10.58,10.58,0,0,1,87,23.22a12.28,12.28,0,0,1,6.65-2.81A16.34,16.34,0,0,1,98.36,20.51Z"/><path class="cls-1" d="M155.44,12.42a5.57,5.57,0,0,1,2.84,4.91,11.37,11.37,0,0,1-.27,2.88,13.36,13.36,0,0,1-4.67,7.65,21.89,21.89,0,0,1-9.28,4.23l-4.63,1L138.16,39a2.81,2.81,0,0,0-.06.76,1.59,1.59,0,0,0,.35,1,4.57,4.57,0,0,0,.92.76,5.55,5.55,0,0,1,.71.53.74.74,0,0,1,.2.51,1.39,1.39,0,0,1-.67,1.27,6.25,6.25,0,0,1-2.09.82c-4.52,1.08-6.77,1.62-11.29,2.65a2.66,2.66,0,0,1-1.78-.05,1,1,0,0,1-.46-1.15,1.68,1.68,0,0,1,.31-.76,5.66,5.66,0,0,1,.71-.76,6.35,6.35,0,0,0,1.17-1.25,4.64,4.64,0,0,0,.64-1.76c1.82-8.56,2.73-12.81,4.55-21.24a4.32,4.32,0,0,0,.13-1.2,2,2,0,0,0-.2-.83,6,6,0,0,0-.46-.73,1.91,1.91,0,0,1-.46-.9,3.16,3.16,0,0,1,.07-.53,1.53,1.53,0,0,1,.75-1,5.45,5.45,0,0,1,1.86-.6c6-1.1,8.95-1.67,14.91-2.8C151.16,11.15,153.65,11.38,155.44,12.42Zm-7.83,6.15c-.08-1.75-.93-2.46-2.55-2.15l-2,.4c-1.07,4.75-1.6,7.13-2.67,11.93l2-.42a5.08,5.08,0,0,0,3-1.87,12.7,12.7,0,0,0,1.88-4.85A11.24,11.24,0,0,0,147.61,18.57Z"/><path class="cls-1" d="M179.34,6.42a.76.76,0,0,1,.56.7,1.79,1.79,0,0,1-.47,1.17,2.1,2.1,0,0,1-.44.42,1.47,1.47,0,0,0-.28.24A5.52,5.52,0,0,0,177.58,10a4.38,4.38,0,0,0-.7,1.59c-1.84,7.78-2.75,11.7-4.58,19.64a3.79,3.79,0,0,0-.13,1.12,1.92,1.92,0,0,0,.2.84,3.36,3.36,0,0,0,.51.63,1.39,1.39,0,0,1,.44.82,2.15,2.15,0,0,1-.07.45,1.56,1.56,0,0,1-.77,1,6.25,6.25,0,0,1-1.87.67c-4.23,1-6.35,1.46-10.57,2.47a2.66,2.66,0,0,1-1.48,0,.74.74,0,0,1-.55-.72,1.84,1.84,0,0,1,.1-.61,2.06,2.06,0,0,1,.55-.89l.48-.43a8.1,8.1,0,0,0,1.13-1.17,4.61,4.61,0,0,0,.69-1.71c1.84-8.11,2.76-12.14,4.6-20.1a3.45,3.45,0,0,0,.13-1.12,1.72,1.72,0,0,0-.19-.78,5.31,5.31,0,0,0-.47-.69,1.81,1.81,0,0,1-.45-.85,2.93,2.93,0,0,1,.07-.5,1.55,1.55,0,0,1,.75-1,6,6,0,0,1,1.86-.57c4.24-.76,6.36-1.12,10.6-1.81A2.94,2.94,0,0,1,179.34,6.42Z"/><path class="cls-1" d="M211.82,3a7.7,7.7,0,0,1,3.59,2,4.71,4.71,0,0,1,1.35,3.16,5.54,5.54,0,0,1-.22,1.93c-.75,2.75-3.19,4.66-7.32,5.86a6.71,6.71,0,0,1,3.53,1.49,4.21,4.21,0,0,1,1.41,3.09,7.68,7.68,0,0,1-.26,2.13,8.64,8.64,0,0,1-3.78,5.14,22.34,22.34,0,0,1-8.44,2.81c-7.51,1.24-11.25,2-18.75,3.54a2.89,2.89,0,0,1-1.47,0,.75.75,0,0,1-.56-.7,1.73,1.73,0,0,1,.11-.59,1.9,1.9,0,0,1,.55-.84c.26-.23.42-.36.48-.4a8,8,0,0,0,1.13-1.11,4.24,4.24,0,0,0,.7-1.62c1.85-7.74,2.78-11.57,4.65-19.14a3.79,3.79,0,0,0,.13-1.08,1.59,1.59,0,0,0-.2-.75,3.84,3.84,0,0,0-.46-.67,1.67,1.67,0,0,1-.45-.83,2.59,2.59,0,0,1,.07-.47,1.38,1.38,0,0,1,.76-.89,6,6,0,0,1,1.86-.5c6.47-.89,9.7-1.29,16.18-1.91A15.31,15.31,0,0,1,211.82,3Zm-9.6,17.89c-.06-1.48-1-2.09-2.9-1.81l-2.26.34c-.87,3.41-1.31,5.13-2.18,8.59.92-.17,1.38-.25,2.3-.4a5.8,5.8,0,0,0,3.07-1.4A7.22,7.22,0,0,0,202,22.69,6.11,6.11,0,0,0,202.22,20.84ZM205,8.54c-.07-1.41-1-2-2.77-1.82l-2,.24c-.81,3.19-1.22,4.79-2,8l2-.28a5.33,5.33,0,0,0,3-1.23,6.56,6.56,0,0,0,1.65-3.22A5.39,5.39,0,0,0,205,8.54Z"/><path class="cls-1" d="M246.44,22.32a2.49,2.49,0,0,0-.14,1,1.56,1.56,0,0,0,.17.69,1.69,1.69,0,0,0,.32.46,1.49,1.49,0,0,1,.21.25,1.08,1.08,0,0,1,.49.76,2,2,0,0,1-.07.37,1.08,1.08,0,0,1-.76.72,6.7,6.7,0,0,1-1.88.19c-4.31,0-6.46,0-10.76.24a3.33,3.33,0,0,1-1.49-.2.82.82,0,0,1-.56-.71,1.34,1.34,0,0,1,.12-.51,1.22,1.22,0,0,1,.36-.5,7.52,7.52,0,0,1,.68-.44,4.41,4.41,0,0,0,1.15-.82,3.3,3.3,0,0,0,.7-1.41l1-3.33c-2.84.06-4.25.11-7.08.26-.45.91-.67,1.37-1.12,2.29a5.44,5.44,0,0,0-.67,2.31,1.48,1.48,0,0,0,.22.75,3.37,3.37,0,0,0,.57.56,2,2,0,0,1,.46.5.78.78,0,0,1,.05.56,1.22,1.22,0,0,1-.71.85,5.8,5.8,0,0,1-1.78.36c-2.7.22-4,.35-6.75.64a2.92,2.92,0,0,1-1.59-.17.93.93,0,0,1-.59-.83,1.28,1.28,0,0,1,.47-1.07,8.71,8.71,0,0,1,1.53-1,13.55,13.55,0,0,0,2.11-1.38A5.1,5.1,0,0,0,222.46,22c2.95-6.08,4.43-9,7.4-14.83A11.32,11.32,0,0,1,234,2.32,11.9,11.9,0,0,1,240.62,1a14.17,14.17,0,0,1,7.27,2,5.58,5.58,0,0,1,2.76,4.5,6.39,6.39,0,0,1-.34,2.34C248.75,14.76,248,17.25,246.44,22.32Zm-9.25-7.11c.84-2.7,1.26-4,2.1-6.69a2.54,2.54,0,0,0,.13-.95,1.34,1.34,0,0,0-.52-1.09,2.29,2.29,0,0,0-1.36-.39,3,3,0,0,0-1.84.51,5.32,5.32,0,0,0-1.46,1.92c-1.36,2.7-2,4.06-3.41,6.82C233.38,15.25,234.65,15.22,237.19,15.21Z"/><path class="cls-1" d="M274.75,6.26a28.28,28.28,0,0,1,4.51,2.57l1-.38A7,7,0,0,1,282.07,8a5.56,5.56,0,0,1,3.39,1.1,1.72,1.72,0,0,1,.69,1.24,1.07,1.07,0,0,1-.11.55l-1.71,4.19a1.63,1.63,0,0,1-.75,1,2.26,2.26,0,0,1-1.43,0,4.41,4.41,0,0,1-1.8-.92c-.52-.44-1.34-1.3-2.46-2.51a16.84,16.84,0,0,0-3-2.66,7.88,7.88,0,0,0-2.71-1.16,2.32,2.32,0,0,0-1.68.18,1.14,1.14,0,0,0-.62,1.13A2.63,2.63,0,0,0,271,11.89a41.81,41.81,0,0,0,3.53,2.52c1.62,1.06,3,2,4,2.83a14.68,14.68,0,0,1,2.77,2.8,5.74,5.74,0,0,1,1.24,3.22,4.41,4.41,0,0,1-.36,2,5.49,5.49,0,0,1-4.07,3.31,18.11,18.11,0,0,1-7.31.19,26.41,26.41,0,0,1-5.33-1.28,21.14,21.14,0,0,1-4.48-2.43l-1.59.94a8.84,8.84,0,0,1-1.83.9,4.43,4.43,0,0,1-1.63.16,3.21,3.21,0,0,1-1.68-.5,1.44,1.44,0,0,1-.67-1.14,1.82,1.82,0,0,1,.15-.77c.79-2.15,1.19-3.22,2-5.34a2.17,2.17,0,0,1,.94-1.27,2.7,2.7,0,0,1,1.62-.25,3.74,3.74,0,0,1,1.93.78A17.13,17.13,0,0,1,262.6,21a13.08,13.08,0,0,0,2.83,2.65,7.73,7.73,0,0,0,3,1,4.58,4.58,0,0,0,1.88,0,1.34,1.34,0,0,0,.9-.83,1.2,1.2,0,0,0,.06-.52,2.53,2.53,0,0,0-1.12-1.74,31.75,31.75,0,0,0-3.34-2.22c-1.58-.95-2.88-1.8-3.89-2.52a12.51,12.51,0,0,1-2.64-2.55A5.64,5.64,0,0,1,259.09,11a6,6,0,0,1,.38-2.46A5.75,5.75,0,0,1,263.22,5,12.54,12.54,0,0,1,270,4.76,22.72,22.72,0,0,1,274.75,6.26Z"/><path class="cls-1" d="M26,59.7a1.32,1.32,0,0,1,.72,1.09,1.42,1.42,0,0,1-.1.62l-.75,2.13a1.31,1.31,0,0,1-.64.82,2.47,2.47,0,0,1-1.26.13,3,3,0,0,1-1.25-.37,2,2,0,0,1-.71-.87c-.24-.56-.36-.83-.59-1.38a1.41,1.41,0,0,0-.43-.6,2.19,2.19,0,0,0-.9-.23c-1.38-.14-2.08-.22-3.47-.39-.58,1.54-.87,2.31-1.46,3.83l1.46.2a1.14,1.14,0,0,0,.61-.14L18.3,64a4.23,4.23,0,0,1,.84-.33,2.24,2.24,0,0,1,.88,0A2.32,2.32,0,0,1,21,64a.79.79,0,0,1,.4.61.64.64,0,0,1-.05.27c-.48,1.23-.72,1.84-1.2,3a1.09,1.09,0,0,1-.65.66,2.06,2.06,0,0,1-1,.1,2,2,0,0,1-1.42-.86l-.6-.88a1,1,0,0,0-.75-.45l-1.29-.2c-.69,1.8-1,2.69-1.73,4.45,1.17.22,1.75.32,2.92.51a3.13,3.13,0,0,0,1.1,0,3,3,0,0,0,1-.44c.76-.48,1.15-.73,1.91-1.23a3.5,3.5,0,0,1,1-.43,3.38,3.38,0,0,1,1.16,0,3,3,0,0,1,1.2.38.91.91,0,0,1,.5.75,1.29,1.29,0,0,1-.08.44l-.85,2.22a1.73,1.73,0,0,1-1,1.09,4.27,4.27,0,0,1-2,0c-6.32-1-9.49-1.58-15.83-3.08a3.46,3.46,0,0,1-1.09-.41c-.26-.16-.39-.33-.4-.5a.42.42,0,0,1,.08-.26.59.59,0,0,1,.42-.26l.36-.07a3.38,3.38,0,0,0,.84-.25,1.19,1.19,0,0,0,.53-.62c1.46-3.4,2.19-5.14,3.64-8.69a1,1,0,0,0,.1-.51.88.88,0,0,0-.13-.46,2.67,2.67,0,0,0-.37-.43A1,1,0,0,1,7.39,58a.85.85,0,0,1,.06-.23A.63.63,0,0,1,8,57.43a6,6,0,0,1,1.36.09c5.88.88,8.81,1.21,14.67,1.66A4.45,4.45,0,0,1,26,59.7Z"/><path class="cls-1" d="M53.8,60.25a.74.74,0,0,1-.3.67,3.69,3.69,0,0,1-.54.34,3.61,3.61,0,0,0-.8.55,2.16,2.16,0,0,0-.52.88c-1.41,4.59-2.12,6.85-3.55,11.29a3.87,3.87,0,0,1-1.3,2.08,3.67,3.67,0,0,1-2.29.51,4.11,4.11,0,0,1-2.22-.69A6.74,6.74,0,0,1,40.57,74c-2.14-3.24-3.21-4.85-5.35-8-1,2.78-1.46,4.15-2.44,6.87a1.82,1.82,0,0,0-.07.54,1,1,0,0,0,.17.53,2.65,2.65,0,0,0,.44.46c.25.23.38.42.38.56a.47.47,0,0,1,0,.22.7.7,0,0,1-.57.41,5.17,5.17,0,0,1-1.38,0c-1.44-.14-2.16-.21-3.6-.38-.91-.1-1.37-.36-1.39-.77a.55.55,0,0,1,.3-.56,3.84,3.84,0,0,1,.55-.24,3,3,0,0,0,.81-.38,1.63,1.63,0,0,0,.52-.75c1.48-4.09,2.22-6.18,3.69-10.42L32,61.24a1.73,1.73,0,0,1-.37-.85c0-.5.41-.73,1.29-.7,1.95.08,2.92.1,4.87.14a3.06,3.06,0,0,1,1.61.37,5.3,5.3,0,0,1,1.23,1.29c2.06,2.91,3.09,4.38,5.14,7.35.8-2.41,1.2-3.62,2-6.07a2.26,2.26,0,0,0,.07-.58,1,1,0,0,0-.17-.54,2.92,2.92,0,0,0-.43-.44q-.39-.32-.39-.54a.51.51,0,0,1,0-.23.79.79,0,0,1,.57-.5,5.2,5.2,0,0,1,1.37-.18c1.43,0,2.15-.06,3.58-.12C53.32,59.6,53.78,59.8,53.8,60.25Z"/><path class="cls-1" d="M82.88,68.7a1,1,0,0,1,.52.87,2,2,0,0,1-.07.57l-.93,3.37a3.26,3.26,0,0,1-1.12,1.77,4.46,4.46,0,0,1-2.25.64c-6.16.42-9.25.58-15.42.72a2.37,2.37,0,0,1-1.08-.16.56.56,0,0,1-.4-.49.93.93,0,0,1,.08-.34.86.86,0,0,1,.32-.37c.14-.1.3-.19.47-.29a3.85,3.85,0,0,0,.83-.56,2.23,2.23,0,0,0,.52-.94c1.39-4.63,2.08-7,3.46-11.73a2.12,2.12,0,0,0,.1-.68,1,1,0,0,0-.14-.49,2.79,2.79,0,0,0-.33-.44,1,1,0,0,1-.32-.54.85.85,0,0,1,0-.3.88.88,0,0,1,.55-.55,4.71,4.71,0,0,1,1.35-.27c3.08-.3,4.61-.47,7.69-.83a2.55,2.55,0,0,1,1.07.05.52.52,0,0,1,.4.47,1,1,0,0,1-.08.37,1.35,1.35,0,0,1-.26.38,2.15,2.15,0,0,1-.32.26.81.81,0,0,0-.21.15,3.77,3.77,0,0,0-.82.64A2.53,2.53,0,0,0,76,61c-1.46,5.16-2.19,7.7-3.65,12.72l2-.12a3.65,3.65,0,0,0,1.29-.31,3.55,3.55,0,0,0,1.09-.9c.86-1,1.29-1.46,2.15-2.45a5,5,0,0,1,1.16-1,3.25,3.25,0,0,1,1.38-.41A2.42,2.42,0,0,1,82.88,68.7Z"/><path class="cls-1" d="M106.65,69.6a2.48,2.48,0,0,0-.1.8,1.33,1.33,0,0,0,.13.53,1,1,0,0,0,.23.33.85.85,0,0,1,.15.18.77.77,0,0,1,.36.55,2.86,2.86,0,0,1,0,.31,1,1,0,0,1-.55.66,4.12,4.12,0,0,1-1.35.33c-3.1.39-4.65.57-7.75.92a2.18,2.18,0,0,1-1.07-.09.56.56,0,0,1-.4-.51.88.88,0,0,1,.08-.39,1,1,0,0,1,.26-.39,4.5,4.5,0,0,1,.49-.36,4,4,0,0,0,.83-.69,2.81,2.81,0,0,0,.5-1.11c.29-1,.44-1.57.73-2.63-2,.27-3.06.4-5.1.65l-.8,1.74a4.19,4.19,0,0,0-.48,1.74.94.94,0,0,0,.16.54,2,2,0,0,0,.41.41,1.3,1.3,0,0,1,.33.35.63.63,0,0,1,0,.42.93.93,0,0,1-.52.64,3.72,3.72,0,0,1-1.28.29c-2,.2-2.93.29-4.88.46a2.11,2.11,0,0,1-1.16-.14.66.66,0,0,1-.42-.6.89.89,0,0,1,.34-.75,6.72,6.72,0,0,1,1.11-.68,9.47,9.47,0,0,0,1.53-1,3.89,3.89,0,0,0,1-1.26c2.13-4.45,3.19-6.72,5.32-11.34a11,11,0,0,1,3-4.11,10.11,10.11,0,0,1,4.72-1.94,8.69,8.69,0,0,1,5.22.32,3.4,3.4,0,0,1,2,3.15,6.36,6.36,0,0,1-.23,2C108.28,63.23,107.74,65.37,106.65,69.6ZM100,65c.59-2.16.89-3.25,1.48-5.43a2.21,2.21,0,0,0,.1-.76.93.93,0,0,0-.38-.79,1.39,1.39,0,0,0-1-.12,2.46,2.46,0,0,0-1.32.62,5.27,5.27,0,0,0-1,1.63c-1,2.21-1.46,3.3-2.44,5.47C97.24,65.36,98.16,65.24,100,65Z"/><path class="cls-1" d="M140.86,64.32a3.3,3.3,0,0,0-.09.87,1.39,1.39,0,0,0,.13.59,1.49,1.49,0,0,0,.23.36,2.92,2.92,0,0,1,.51.79,1.79,1.79,0,0,1,0,.33,1.08,1.08,0,0,1-.54.73,4.18,4.18,0,0,1-1.35.38L132,69.56a2,2,0,0,1-1.07-.06.6.6,0,0,1-.4-.54,1.36,1.36,0,0,1,.34-.87,5.19,5.19,0,0,1,.49-.41,4.38,4.38,0,0,0,.82-.77,3.41,3.41,0,0,0,.5-1.24c.28-1.15.43-1.73.72-2.89l-5.09.86-.8,1.94a5.11,5.11,0,0,0-.47,1.91,1.26,1.26,0,0,0,.16.6,2.08,2.08,0,0,0,.42.42,1.73,1.73,0,0,1,.33.38.75.75,0,0,1,0,.46,1,1,0,0,1-.5.72,3.79,3.79,0,0,1-1.29.37l-4.86.71a2,2,0,0,1-1.16-.1.69.69,0,0,1-.42-.63,1.07,1.07,0,0,1,.34-.85,7,7,0,0,1,1.09-.8,9.18,9.18,0,0,0,1.53-1.16,4.46,4.46,0,0,0,1-1.42c2.11-5,3.16-7.49,5.26-12.61a12.35,12.35,0,0,1,3-4.58,9.73,9.73,0,0,1,4.71-2.22,7.85,7.85,0,0,1,5.21.28,3.73,3.73,0,0,1,2,3.42,7.51,7.51,0,0,1-.23,2.16C142.47,57.35,141.93,59.69,140.86,64.32Zm-6.68-4.91c.59-2.38.88-3.58,1.47-6a3,3,0,0,0,.09-.83,1,1,0,0,0-.39-.86,1.31,1.31,0,0,0-1-.11,2.45,2.45,0,0,0-1.32.71,5.72,5.72,0,0,0-1,1.81c-1,2.44-1.45,3.65-2.41,6.06Z"/><path class="cls-1" d="M168.71,50.93a8.34,8.34,0,0,1-3.56,2,3.2,3.2,0,0,1,2.4.57,2.77,2.77,0,0,1,.88,2.06,6.58,6.58,0,0,1-.1,1.31c-.11.71-.17,1.06-.28,1.76a2.85,2.85,0,0,0,0,.5.9.9,0,0,0,.23.65.64.64,0,0,0,.56.14,1.75,1.75,0,0,1,1,.06c.21.1.29.35.25.73a3.59,3.59,0,0,1-.72,1.68A5.47,5.47,0,0,1,167.56,64a8.15,8.15,0,0,1-2.87.92,5.1,5.1,0,0,1-3.47-.5,3.11,3.11,0,0,1-1.41-2.69,7.2,7.2,0,0,1,.12-1.56l.42-2.27a3.78,3.78,0,0,0,.09-1,1.09,1.09,0,0,0-.56-1,2.87,2.87,0,0,0-1.63-.07L157,56c-.49,2.35-.74,3.52-1.24,5.86a2,2,0,0,0,0,.52,1.28,1.28,0,0,0,.27.77,3.52,3.52,0,0,0,.65.61,2.52,2.52,0,0,1,.48.39.66.66,0,0,1,.18.43.92.92,0,0,1-.48.89,4.13,4.13,0,0,1-1.52.47l-8.2,1.27a2.06,2.06,0,0,1-1.29-.12.71.71,0,0,1-.33-.83,1.18,1.18,0,0,1,.22-.51,4.26,4.26,0,0,1,.52-.5,4.51,4.51,0,0,0,.85-.84,3,3,0,0,0,.47-1.21c1.32-6,2-9,3.3-15a2.92,2.92,0,0,0,.1-.86,1.38,1.38,0,0,0-.15-.59,3.69,3.69,0,0,0-.33-.53,1.22,1.22,0,0,1-.33-.64,1.92,1.92,0,0,1,.05-.38,1.12,1.12,0,0,1,.54-.73,4.08,4.08,0,0,1,1.34-.47c4.37-.9,6.55-1.35,10.91-2.22a9.31,9.31,0,0,1,4,0,4.9,4.9,0,0,1,2.67,1.51,4.29,4.29,0,0,1,1,2.71,6,6,0,0,1-.12,1.51A6.74,6.74,0,0,1,168.71,50.93Zm-6.45-3.56c-.06-1.22-.72-1.7-2-1.46l-1.36.27c-.46,2.52-.69,3.78-1.16,6.29l1.37-.25a3.42,3.42,0,0,0,2-1,5.33,5.33,0,0,0,1-2.61A6.62,6.62,0,0,0,162.26,47.37Z"/><path class="cls-1" d="M179.3,61.63a7.52,7.52,0,0,1-3.63-2.76,9.24,9.24,0,0,1-1.53-5,17.83,17.83,0,0,1,.47-4.69,17,17,0,0,1,4.17-8.45,11.94,11.94,0,0,1,6.38-3.53,8,8,0,0,1,3.33.06,7.49,7.49,0,0,1,2.72,1.36l.85-.9a8.47,8.47,0,0,1,1.43-1.3,3.4,3.4,0,0,1,1.34-.51,1.88,1.88,0,0,1,1.33.21,1.35,1.35,0,0,1,.55,1.12,2.66,2.66,0,0,1-.1.83c-.62,2.42-.93,3.62-1.56,6a3.66,3.66,0,0,1-.63,1.5,1.8,1.8,0,0,1-1.21.57,1.53,1.53,0,0,1-1.42-.49,10,10,0,0,1-1.33-2.14,8.17,8.17,0,0,0-1.38-2.07,1.66,1.66,0,0,0-1.46-.32c-.9.14-1.73.89-2.5,2.24a21.52,21.52,0,0,0-2,5.81,20.35,20.35,0,0,0-.61,5.22,4.34,4.34,0,0,0,.74,2.59,1.79,1.79,0,0,0,1.71.66,4.38,4.38,0,0,0,2.5-1.08,13.74,13.74,0,0,0,1.94-2.33c.42-.59.75-1,1-1.33a1.37,1.37,0,0,1,.85-.49,1.69,1.69,0,0,1,1.27.5,1.74,1.74,0,0,1,.69,1.25,5.64,5.64,0,0,1-1,2.63A12.49,12.49,0,0,1,189,60.22a9.48,9.48,0,0,1-4.73,1.9A10.76,10.76,0,0,1,179.3,61.63Z"/><path class="cls-1" d="M212.09,34a.76.76,0,0,1,.41.67,1.87,1.87,0,0,1-.08.51,1.73,1.73,0,0,1-.25.51,2.16,2.16,0,0,1-.32.34,1.25,1.25,0,0,0-.2.19,4.11,4.11,0,0,0-.82.86,3.82,3.82,0,0,0-.49,1.36c-1.28,6.74-1.92,10.08-3.19,16.73a3.25,3.25,0,0,0-.09,1,2,2,0,0,0,.15.75,3.43,3.43,0,0,0,.37.61,1.55,1.55,0,0,1,.34.77c0,.06,0,.18,0,.39a1.07,1.07,0,0,1-.56.78,3.63,3.63,0,0,1-1.36.31c-3.08.24-4.62.37-7.7.67a1.85,1.85,0,0,1-1.08-.16.78.78,0,0,1-.41-.66,1.79,1.79,0,0,1,.08-.49,1.45,1.45,0,0,1,.4-.68l.34-.29a5,5,0,0,0,.82-.85,3.72,3.72,0,0,0,.5-1.34c1.29-6.57,1.94-9.87,3.23-16.54a4,4,0,0,0,.09-1,1.8,1.8,0,0,0-.15-.68,6.75,6.75,0,0,0-.34-.62,1.59,1.59,0,0,1-.33-.74,2,2,0,0,1,0-.42,1.17,1.17,0,0,1,.54-.77,3.52,3.52,0,0,1,1.35-.39c3.07-.41,4.61-.61,7.68-1A2,2,0,0,1,212.09,34Z"/><path class="cls-1" d="M234.09,48.81a1.83,1.83,0,0,1,.54,1.3,3.83,3.83,0,0,1-.06.8c-.35,1.87-.52,2.81-.87,4.67A4.3,4.3,0,0,1,232.61,58a3.29,3.29,0,0,1-2.25.68c-6.18,0-9.27.13-15.43.46a1.75,1.75,0,0,1-1.08-.21.82.82,0,0,1-.41-.7,1.57,1.57,0,0,1,.07-.51,1.27,1.27,0,0,1,.31-.54c.14-.14.3-.29.47-.43a4.3,4.3,0,0,0,.82-.84,3.55,3.55,0,0,0,.49-1.35c1.29-6.73,1.93-10.12,3.22-16.94a3.71,3.71,0,0,0,.08-1,1.82,1.82,0,0,0-.15-.71,4.6,4.6,0,0,0-.34-.65,1.9,1.9,0,0,1-.33-.79,2.18,2.18,0,0,1,0-.43,1.14,1.14,0,0,1,.54-.77,3.3,3.3,0,0,1,1.35-.33c3.08-.27,4.62-.39,7.7-.58a1.91,1.91,0,0,1,1.08.19.82.82,0,0,1,.41.71,1.52,1.52,0,0,1-.07.52,1.75,1.75,0,0,1-.26.51,1.52,1.52,0,0,1-.31.34.81.81,0,0,0-.21.19,3.56,3.56,0,0,0-.81.84A3.87,3.87,0,0,0,227,37c-1.35,7.24-2,10.84-3.39,18l2-.06a2.56,2.56,0,0,0,1.28-.35A3.65,3.65,0,0,0,228,53.38l2.12-3.29a4.86,4.86,0,0,1,1.14-1.3,2.35,2.35,0,0,1,1.37-.42A2,2,0,0,1,234.09,48.81Z"/><path class="cls-1" d="M258,49.71a2.07,2.07,0,0,1,.55,1.4,4.11,4.11,0,0,1-.06.83c-.35,1.92-.52,2.87-.86,4.79a4.16,4.16,0,0,1-1.09,2.38,3.05,3.05,0,0,1-2.26.5c-6.21-.55-9.31-.72-15.5-.88a1.87,1.87,0,0,1-1.08-.3,1,1,0,0,1-.42-.77,2,2,0,0,1,.08-.52,1.3,1.3,0,0,1,.3-.54c.15-.14.31-.28.48-.41a4.13,4.13,0,0,0,.81-.81,3.58,3.58,0,0,0,.5-1.38c1.28-6.93,1.92-10.41,3.19-17.42a3.93,3.93,0,0,0,.08-1,2.09,2.09,0,0,0-.15-.76,5.52,5.52,0,0,0-.34-.71,2.1,2.1,0,0,1-.34-.85,2.66,2.66,0,0,1,.05-.45,1,1,0,0,1,.54-.75,3.06,3.06,0,0,1,1.35-.23c3.09,0,4.64,0,7.73.1a2,2,0,0,1,1.09.31,1,1,0,0,1,.41.78,1.66,1.66,0,0,1-.07.54,1.33,1.33,0,0,1-.26.5,1.36,1.36,0,0,1-.31.32,1,1,0,0,0-.21.18,3.08,3.08,0,0,0-.81.8,3.78,3.78,0,0,0-.5,1.38c-1.35,7.43-2,11.12-3.37,18.45l2,.12a2.3,2.3,0,0,0,1.29-.25,3.32,3.32,0,0,0,1.08-1.16l2.11-3.23a4.25,4.25,0,0,1,1.15-1.24,2.06,2.06,0,0,1,1.38-.31A2.12,2.12,0,0,1,258,49.71Z"/><path class="cls-1" d="M282.15,58.78a5.1,5.1,0,0,0-.08,1.11,3.77,3.77,0,0,0,.14.83,4.08,4.08,0,0,0,.24.57,2.72,2.72,0,0,1,.17.32,1.84,1.84,0,0,1,.37,1,2.76,2.76,0,0,1-.05.42.82.82,0,0,1-.54.72,3,3,0,0,1-1.37-.06c-3.15-.69-4.72-1-7.86-1.55a2.08,2.08,0,0,1-1.09-.49,1.19,1.19,0,0,1-.42-.88,1.74,1.74,0,0,1,.07-.54,1,1,0,0,1,.26-.49,2.83,2.83,0,0,1,.49-.36,2.86,2.86,0,0,0,.82-.71,3.54,3.54,0,0,0,.49-1.46c.28-1.42.41-2.13.69-3.55-2.07-.35-3.1-.51-5.17-.81l-.78,2.3a7.15,7.15,0,0,0-.44,2.39,2.25,2.25,0,0,0,.17.85,4,4,0,0,0,.43.72,4.07,4.07,0,0,1,.34.62,1.28,1.28,0,0,1,0,.63.94.94,0,0,1-.5.79,2.66,2.66,0,0,1-1.3,0c-2-.29-3-.42-4.93-.67a1.92,1.92,0,0,1-1.17-.5,1.43,1.43,0,0,1-.45-1,1.3,1.3,0,0,1,.33-1,5.63,5.63,0,0,1,1.1-.73,6.46,6.46,0,0,0,1.53-1.05,4,4,0,0,0,.95-1.58c2.06-6,3.09-8.95,5.15-15a10.55,10.55,0,0,1,2.94-4.93,5.86,5.86,0,0,1,4.77-1,8.68,8.68,0,0,1,5.32,2.7,8.42,8.42,0,0,1,2.1,5.43,11.54,11.54,0,0,1-.2,2.74C283.69,50.28,283.18,53.12,282.15,58.78Zm-6.88-9.32,1.4-7.32a4.08,4.08,0,0,0,.08-1.06,2.2,2.2,0,0,0-.4-1.29,1.51,1.51,0,0,0-1-.56,1.48,1.48,0,0,0-1.33.4,5.05,5.05,0,0,0-1,2l-2.36,7.12C272.49,49,273.42,49.15,275.27,49.46Z"/></svg>